<svg width="32" height="32" viewBox="0 0 32 32" fill="none" xmlns="http://www.w3.org/2000/svg">
<g clip-path="url(#clip0_478_628)">
<path d="M14.414 1.99964C14.039 1.62469 13.5303 1.41406 13 1.41406C12.4697 1.41406 11.9611 1.62469 11.586 1.99964L0.292012 13.2916C0.104239 13.4794 -0.00125122 13.7341 -0.00125122 13.9996C-0.00125122 14.2652 0.104239 14.5199 0.292012 14.7076C0.479785 14.8954 0.73446 15.0009 1.00001 15.0009C1.26556 15.0009 1.52024 14.8954 1.70801 14.7076L2.00001 14.4136V24.9996C2.00001 25.7953 2.31608 26.5583 2.87869 27.121C3.4413 27.6836 4.20436 27.9996 5.00001 27.9996H6.10001C6.03331 27.6705 5.99981 27.3355 6.00001 26.9996V18.8296C5.52227 18.6606 5.09515 18.3733 4.75848 17.9945C4.42182 17.6157 4.1866 17.1578 4.07476 16.6635C3.96293 16.1693 3.97813 15.6547 4.11894 15.1679C4.25975 14.6811 4.52158 14.2379 4.88001 13.8796L15.586 3.17164L14.414 1.99964Z" fill="white"/>
<path d="M17.586 3.99964C17.9611 3.62469 18.4697 3.41406 19 3.41406C19.5303 3.41406 20.039 3.62469 20.414 3.99964L24 7.58564V4.99964C24 4.73442 24.1054 4.48007 24.2929 4.29253C24.4804 4.10499 24.7348 3.99964 25 3.99964H27C27.2652 3.99964 27.5196 4.10499 27.7071 4.29253C27.8947 4.48007 28 4.73442 28 4.99964V11.5856L31.708 15.2916C31.8958 15.4794 32.0013 15.7341 32.0013 15.9996C32.0013 16.2652 31.8958 16.5199 31.708 16.7076C31.5202 16.8954 31.2656 17.0009 31 17.0009C30.7345 17.0009 30.4798 16.8954 30.292 16.7076L30 16.4136V26.9996C30 27.7953 29.6839 28.5583 29.1213 29.121C28.5587 29.6836 27.7957 29.9996 27 29.9996H11C10.2044 29.9996 9.4413 29.6836 8.87869 29.121C8.31608 28.5583 8.00001 27.7953 8.00001 26.9996V16.4136L7.70801 16.7076C7.61504 16.8006 7.50466 16.8744 7.38318 16.9247C7.2617 16.975 7.1315 17.0009 7.00001 17.0009C6.86852 17.0009 6.73832 16.975 6.61685 16.9247C6.49537 16.8744 6.38499 16.8006 6.29201 16.7076C6.19904 16.6147 6.12528 16.5043 6.07497 16.3828C6.02465 16.2613 5.99875 16.1311 5.99875 15.9996C5.99875 15.8681 6.02465 15.7379 6.07497 15.6165C6.12528 15.495 6.19904 15.3846 6.29201 15.2916L17.586 3.99964Z" fill="white"/>
</g>
<defs>
<clipPath id="clip0_478_628">
<rect width="32" height="32" fill="white"/>
</clipPath>
</defs>
</svg>
