<svg width="32" height="32" viewBox="0 0 32 32" fill="none" xmlns="http://www.w3.org/2000/svg">
<g clip-path="url(#clip0_478_637)">
<path d="M16 28C24.8375 28 32 22.1812 32 15C32 7.81875 24.8375 2 16 2C7.16251 2 1.22474e-05 7.81875 1.22474e-05 15C1.22474e-05 17.8188 1.10626 20.425 2.98126 22.5562C2.86251 24.0875 2.26876 25.45 1.64376 26.4875C1.30001 27.0625 0.950012 27.525 0.693762 27.8375C0.562512 27.9937 0.462512 28.1125 0.387512 28.1938C0.350012 28.2313 0.325012 28.2625 0.306262 28.2812L0.287512 28.3C1.22488e-05 28.5875 -0.0812377 29.0125 0.0750123 29.3875C0.231262 29.7625 0.593762 30.0063 1.00001 30.0063C2.79376 30.0063 4.60001 29.45 6.10001 28.8C7.53126 28.175 8.75001 27.4313 9.49376 26.8875C11.4813 27.6063 13.6813 28.0063 16 28.0063V28ZM8.00001 13C8.53045 13 9.03915 13.2107 9.41423 13.5858C9.7893 13.9609 10 14.4696 10 15C10 15.5304 9.7893 16.0391 9.41423 16.4142C9.03915 16.7893 8.53045 17 8.00001 17C7.46958 17 6.96087 16.7893 6.5858 16.4142C6.21073 16.0391 6.00001 15.5304 6.00001 15C6.00001 14.4696 6.21073 13.9609 6.5858 13.5858C6.96087 13.2107 7.46958 13 8.00001 13ZM16 13C16.5304 13 17.0392 13.2107 17.4142 13.5858C17.7893 13.9609 18 14.4696 18 15C18 15.5304 17.7893 16.0391 17.4142 16.4142C17.0392 16.7893 16.5304 17 16 17C15.4696 17 14.9609 16.7893 14.5858 16.4142C14.2107 16.0391 14 15.5304 14 15C14 14.4696 14.2107 13.9609 14.5858 13.5858C14.9609 13.2107 15.4696 13 16 13ZM22 15C22 14.4696 22.2107 13.9609 22.5858 13.5858C22.9609 13.2107 23.4696 13 24 13C24.5304 13 25.0392 13.2107 25.4142 13.5858C25.7893 13.9609 26 14.4696 26 15C26 15.5304 25.7893 16.0391 25.4142 16.4142C25.0392 16.7893 24.5304 17 24 17C23.4696 17 22.9609 16.7893 22.5858 16.4142C22.2107 16.0391 22 15.5304 22 15Z" fill="white"/>
</g>
<defs>
<clipPath id="clip0_478_637">
<rect width="32" height="32" fill="white"/>
</clipPath>
</defs>
</svg>
