<svg width="44" height="40" viewBox="0 0 44 40" fill="none" xmlns="http://www.w3.org/2000/svg">
<path d="M43.4814 19.2148L36.3927 12.724V3.15615C36.3927 2.41019 35.8087 1.807 35.0878 1.807H29.8655C29.1447 1.807 28.5606 2.41019 28.5606 3.15615V5.55286L22.8657 0.339837C22.3706 -0.113279 21.63 -0.113279 21.1334 0.339837L0.517791 19.2148C0.111516 19.5864 -0.0281407 20.1793 0.163711 20.7024C0.356974 21.2269 0.842247 21.5737 1.38395 21.5737H7.91115V38.54C7.91115 39.149 8.30473 39.6415 8.83797 39.8105C8.94236 39.8732 9.05662 39.9198 9.1864 39.9198H21.9996C22.3889 39.9198 22.7049 39.592 22.7049 39.1913C22.7049 38.7906 22.3889 38.4628 21.9996 38.4628H10.5223V37.0058H16.3569C16.7462 37.0058 17.0622 36.678 17.0622 36.2774C17.0622 35.8767 16.7462 35.5489 16.3569 35.5489H10.5223V34.0919H16.3569C16.7462 34.0919 17.0622 33.7641 17.0622 33.3634C17.0622 32.9628 16.7462 32.6349 16.3569 32.6349H10.5223V31.178H21.9996C22.3889 31.178 22.7049 30.8502 22.7049 30.4495C22.7049 30.0488 22.3889 29.721 21.9996 29.721H10.5223V28.2641H16.3569C16.7462 28.2641 17.0622 27.9362 17.0622 27.5356C17.0622 27.1349 16.7462 26.8071 16.3569 26.8071H10.5223V25.3501H16.3569C16.7462 25.3501 17.0622 25.0223 17.0622 24.6216C17.0622 24.221 16.7462 23.8932 16.3569 23.8932H10.5223V22.4362H21.9996C22.3889 22.4362 22.7049 22.1084 22.7049 21.7077C22.7049 21.307 22.3889 20.9792 21.9996 20.9792H10.5223V20.2274C10.5223 19.4829 9.93829 18.8797 9.21603 18.8797H4.82459L21.9996 3.14887L28.998 9.55661C29.3831 9.91065 29.929 9.99515 30.3988 9.77806C30.8685 9.56098 31.169 9.08018 31.169 8.54838V4.50385H33.7816V13.3316C33.7816 13.7177 33.9396 14.0849 34.2217 14.3398L39.1746 18.8754H34.7845C34.0609 18.8754 33.4783 19.4785 33.4783 20.2231V38.5386C33.4783 39.2845 34.0609 39.8877 34.7845 39.8877C35.5054 39.8877 36.0894 39.2845 36.0894 38.5386V21.5722H42.6152C43.1569 21.5722 43.6436 21.2269 43.8355 20.7009C44.0273 20.1793 43.8862 19.5864 43.4814 19.2148Z" fill="#78BE21"/>
</svg>
