<svg width="20" height="20" viewBox="0 0 20 20" fill="none" xmlns="http://www.w3.org/2000/svg">
<g clip-path="url(#clip0_478_99)">
<path d="M8.55567 15.7442C8.47532 15.8037 8.38115 15.846 8.27392 15.846H6.30472C6.03778 15.846 5.82213 15.6302 5.82213 15.364V13.3948C5.82213 13.1285 6.03778 12.9128 6.30472 12.9128H7.96753C7.99181 12.4728 8.06213 12.0417 8.185 11.628H6.30472C6.03778 11.628 5.82213 11.4121 5.82213 11.1455V9.17676C5.82213 8.91009 6.03778 8.6943 6.30472 8.6943H8.27399C8.5396 8.6943 8.7549 8.91002 8.7549 9.17676V10.3525C8.98676 9.96953 9.26058 9.60883 9.58571 9.28413C10.6391 8.23093 12.0388 7.65065 13.5289 7.65065C13.9043 7.65065 14.2741 7.68799 14.6334 7.76069L9.71195 3.5143C9.53139 3.35851 9.26276 3.35851 9.08255 3.5143L2.7283 8.99634C2.62192 9.08813 2.5603 9.22097 2.5603 9.3616V17.289C2.5603 17.5549 2.77602 17.7706 3.04297 17.7706H10.3061C10.0526 17.59 9.80907 17.3919 9.58557 17.1677C9.16199 16.7446 8.82002 16.2629 8.55567 15.7442Z" fill="white"/>
<path d="M19.7186 18.0534L18.4 16.7337C18.1482 16.4818 17.7927 16.4022 17.4711 16.487L17.1118 16.1278C18.5792 14.3184 18.4725 11.6484 16.7897 9.96524C15.9186 9.09436 14.7606 8.6145 13.5288 8.6145C12.297 8.6145 11.1377 9.09436 10.2674 9.96524C9.3959 10.8367 8.91583 11.9944 8.91583 13.2257C8.91583 14.4577 9.3959 15.6154 10.2674 16.4863C11.1377 17.3583 12.297 17.8384 13.5288 17.8384C14.5974 17.8384 15.6113 17.4755 16.4304 16.809L16.7901 17.169C16.7055 17.4896 16.7845 17.8444 17.0358 18.0959L18.3544 19.4153C18.5424 19.6044 18.7893 19.6982 19.0363 19.6982C19.2828 19.6982 19.5298 19.6046 19.7177 19.416C20.094 19.0402 20.094 18.4299 19.7186 18.0534ZM10.9489 15.8052C10.2592 15.1159 9.88025 14.2001 9.88025 13.2257C9.88025 12.252 10.2591 11.3362 10.9489 10.6469C11.6381 9.95829 12.5539 9.57857 13.5288 9.57857C14.5032 9.57857 15.4181 9.95836 16.1087 10.6469C17.5301 12.0688 17.5301 14.3822 16.1092 15.8041C16.1092 15.8043 16.1087 15.8043 16.1087 15.805C16.1087 15.8052 16.1087 15.8054 16.1078 15.8054C15.4177 16.4945 14.5028 16.8744 13.5288 16.8744C12.5544 16.8744 11.6381 16.4944 10.9489 15.8052Z" fill="white"/>
<path d="M17.2025 9.24858C17.3839 9.405 17.6078 9.48163 17.8305 9.48163C18.1013 9.48163 18.3708 9.36767 18.5609 9.14634C18.9082 8.74227 18.8626 8.13391 18.459 7.78669L10.0252 0.535107C9.66409 0.2243 9.12984 0.2243 8.76921 0.535107L0.335879 7.78669C-0.0686124 8.13391 -0.113735 8.7422 0.233002 9.14634C0.580651 9.54998 1.18872 9.59469 1.59195 9.24858L9.39721 2.53686L17.2025 9.24858Z" fill="white"/>
</g>
<defs>
<clipPath id="clip0_478_99">
<rect width="20" height="20" fill="white"/>
</clipPath>
</defs>
</svg>
